<mxfile host="app.diagrams.net" agent="Mozilla/5.0 (X11; Linux x86_64) AppleWebKit/537.36 (KHTML, like Gecko) Chrome/135.0.0.0 Safari/537.36" version="26.2.14">
  <diagram name="Página-1" id="weQ07fwS_ckc1P7WR3N9">
    <mxGraphModel dx="1537" dy="793" grid="1" gridSize="10" guides="1" tooltips="1" connect="1" arrows="1" fold="1" page="1" pageScale="1" pageWidth="827" pageHeight="1169" math="0" shadow="0">
      <root>
        <mxCell id="0" />
        <mxCell id="1" parent="0" />
        <mxCell id="2B0hfktGACySdo1leKU8-14" style="edgeStyle=orthogonalEdgeStyle;rounded=0;orthogonalLoop=1;jettySize=auto;html=1;exitX=0.5;exitY=1;exitDx=0;exitDy=0;" edge="1" parent="1" source="2B0hfktGACySdo1leKU8-4" target="2B0hfktGACySdo1leKU8-5">
          <mxGeometry relative="1" as="geometry" />
        </mxCell>
        <mxCell id="2B0hfktGACySdo1leKU8-4" value="&lt;font style=&quot;font-size: 29px;&quot;&gt;inicio&lt;/font&gt;" style="ellipse;whiteSpace=wrap;html=1;" vertex="1" parent="1">
          <mxGeometry x="320" y="90" width="120" height="80" as="geometry" />
        </mxCell>
        <mxCell id="2B0hfktGACySdo1leKU8-13" style="edgeStyle=orthogonalEdgeStyle;rounded=0;orthogonalLoop=1;jettySize=auto;html=1;exitX=0.5;exitY=1;exitDx=0;exitDy=0;entryX=0.5;entryY=0;entryDx=0;entryDy=0;" edge="1" parent="1" source="2B0hfktGACySdo1leKU8-5" target="2B0hfktGACySdo1leKU8-6">
          <mxGeometry relative="1" as="geometry" />
        </mxCell>
        <mxCell id="2B0hfktGACySdo1leKU8-5" value="&lt;font style=&quot;font-size: 18px;&quot;&gt;solicitar edad&lt;/font&gt;" style="shape=parallelogram;perimeter=parallelogramPerimeter;whiteSpace=wrap;html=1;fixedSize=1;" vertex="1" parent="1">
          <mxGeometry x="320" y="230" width="120" height="60" as="geometry" />
        </mxCell>
        <mxCell id="2B0hfktGACySdo1leKU8-11" style="edgeStyle=orthogonalEdgeStyle;rounded=0;orthogonalLoop=1;jettySize=auto;html=1;exitX=0;exitY=0.5;exitDx=0;exitDy=0;" edge="1" parent="1" source="2B0hfktGACySdo1leKU8-6" target="2B0hfktGACySdo1leKU8-7">
          <mxGeometry relative="1" as="geometry" />
        </mxCell>
        <mxCell id="2B0hfktGACySdo1leKU8-12" style="edgeStyle=orthogonalEdgeStyle;rounded=0;orthogonalLoop=1;jettySize=auto;html=1;exitX=1;exitY=0.5;exitDx=0;exitDy=0;entryX=0.5;entryY=0;entryDx=0;entryDy=0;" edge="1" parent="1" source="2B0hfktGACySdo1leKU8-6" target="2B0hfktGACySdo1leKU8-8">
          <mxGeometry relative="1" as="geometry" />
        </mxCell>
        <mxCell id="2B0hfktGACySdo1leKU8-6" value="&lt;font style=&quot;font-size: 18px;&quot;&gt;edad&amp;gt;=18&lt;/font&gt;" style="rhombus;whiteSpace=wrap;html=1;" vertex="1" parent="1">
          <mxGeometry x="275" y="330" width="210" height="120" as="geometry" />
        </mxCell>
        <mxCell id="2B0hfktGACySdo1leKU8-15" style="edgeStyle=orthogonalEdgeStyle;rounded=0;orthogonalLoop=1;jettySize=auto;html=1;exitX=0.5;exitY=1;exitDx=0;exitDy=0;entryX=0;entryY=0.5;entryDx=0;entryDy=0;" edge="1" parent="1" source="2B0hfktGACySdo1leKU8-7" target="2B0hfktGACySdo1leKU8-9">
          <mxGeometry relative="1" as="geometry" />
        </mxCell>
        <mxCell id="2B0hfktGACySdo1leKU8-7" value="&lt;font style=&quot;font-size: 18px;&quot;&gt;eres menor de edad&lt;/font&gt;" style="shape=parallelogram;perimeter=parallelogramPerimeter;whiteSpace=wrap;html=1;fixedSize=1;" vertex="1" parent="1">
          <mxGeometry x="120" y="480" width="160" height="70" as="geometry" />
        </mxCell>
        <mxCell id="2B0hfktGACySdo1leKU8-16" style="edgeStyle=orthogonalEdgeStyle;rounded=0;orthogonalLoop=1;jettySize=auto;html=1;exitX=0.5;exitY=1;exitDx=0;exitDy=0;entryX=1;entryY=0.5;entryDx=0;entryDy=0;" edge="1" parent="1" source="2B0hfktGACySdo1leKU8-8" target="2B0hfktGACySdo1leKU8-9">
          <mxGeometry relative="1" as="geometry" />
        </mxCell>
        <mxCell id="2B0hfktGACySdo1leKU8-8" value="&lt;font style=&quot;font-size: 18px;&quot;&gt;eres menor de edad&lt;/font&gt;" style="shape=parallelogram;perimeter=parallelogramPerimeter;whiteSpace=wrap;html=1;fixedSize=1;" vertex="1" parent="1">
          <mxGeometry x="450" y="480" width="160" height="70" as="geometry" />
        </mxCell>
        <mxCell id="2B0hfktGACySdo1leKU8-9" value="&lt;font style=&quot;font-size: 18px;&quot;&gt;fin&lt;/font&gt;" style="ellipse;whiteSpace=wrap;html=1;" vertex="1" parent="1">
          <mxGeometry x="310" y="610" width="120" height="80" as="geometry" />
        </mxCell>
        <mxCell id="2B0hfktGACySdo1leKU8-17" value="NO" style="text;html=1;align=center;verticalAlign=middle;resizable=0;points=[];autosize=1;strokeColor=none;fillColor=none;" vertex="1" parent="1">
          <mxGeometry x="220" y="398" width="40" height="30" as="geometry" />
        </mxCell>
        <mxCell id="2B0hfktGACySdo1leKU8-18" value="SI" style="text;html=1;align=center;verticalAlign=middle;resizable=0;points=[];autosize=1;strokeColor=none;fillColor=none;" vertex="1" parent="1">
          <mxGeometry x="495" y="390" width="30" height="30" as="geometry" />
        </mxCell>
        <mxCell id="2B0hfktGACySdo1leKU8-19" value="1) MAYOR O MENOR DE EDAD" style="text;html=1;align=center;verticalAlign=middle;resizable=0;points=[];autosize=1;strokeColor=none;fillColor=none;" vertex="1" parent="1">
          <mxGeometry x="30" y="70" width="200" height="30" as="geometry" />
        </mxCell>
        <mxCell id="2B0hfktGACySdo1leKU8-22" value="&lt;h3 style=&quot;box-sizing: border-box; color: rgb(28, 30, 33); font-family: system-ui, -apple-system, &amp;quot;Segoe UI&amp;quot;, Roboto, Ubuntu, Cantarell, &amp;quot;Noto Sans&amp;quot;, sans-serif, BlinkMacSystemFont, &amp;quot;Segoe UI&amp;quot;, Helvetica, Arial, sans-serif, &amp;quot;Apple Color Emoji&amp;quot;, &amp;quot;Segoe UI Emoji&amp;quot;, &amp;quot;Segoe UI Symbol&amp;quot;; line-height: 1.25; margin: 30px 0px 20px; font-size: 24px; scroll-margin-top: 68px; --ifm-h3-font-size: 1.5rem; text-align: start; text-wrap-mode: wrap;&quot; id=&quot;2-número-positivo-o-negativo&quot; class=&quot;anchor anchorWithStickyNavbar_LWe7&quot;&gt;2)&lt;span style=&quot;color: light-dark(rgb(28, 30, 33), rgb(210, 212, 214)); background-color: transparent; font-weight: normal;&quot;&gt;Número Positivo o Negativo&lt;/span&gt;&lt;/h3&gt;" style="text;html=1;align=center;verticalAlign=middle;resizable=0;points=[];autosize=1;strokeColor=none;fillColor=none;" vertex="1" parent="1">
          <mxGeometry x="-85" y="780" width="350" height="90" as="geometry" />
        </mxCell>
        <mxCell id="2B0hfktGACySdo1leKU8-29" style="edgeStyle=orthogonalEdgeStyle;rounded=0;orthogonalLoop=1;jettySize=auto;html=1;exitX=0.5;exitY=1;exitDx=0;exitDy=0;" edge="1" parent="1" source="2B0hfktGACySdo1leKU8-23" target="2B0hfktGACySdo1leKU8-24">
          <mxGeometry relative="1" as="geometry" />
        </mxCell>
        <mxCell id="2B0hfktGACySdo1leKU8-23" value="INICIO" style="ellipse;whiteSpace=wrap;html=1;" vertex="1" parent="1">
          <mxGeometry x="310" y="930" width="120" height="80" as="geometry" />
        </mxCell>
        <mxCell id="2B0hfktGACySdo1leKU8-30" style="edgeStyle=orthogonalEdgeStyle;rounded=0;orthogonalLoop=1;jettySize=auto;html=1;exitX=0.5;exitY=1;exitDx=0;exitDy=0;entryX=0.5;entryY=0;entryDx=0;entryDy=0;" edge="1" parent="1" source="2B0hfktGACySdo1leKU8-24" target="2B0hfktGACySdo1leKU8-25">
          <mxGeometry relative="1" as="geometry" />
        </mxCell>
        <mxCell id="2B0hfktGACySdo1leKU8-24" value="SOLICITAR UN NUMERO" style="shape=parallelogram;perimeter=parallelogramPerimeter;whiteSpace=wrap;html=1;fixedSize=1;" vertex="1" parent="1">
          <mxGeometry x="280" y="1080" width="180" height="80" as="geometry" />
        </mxCell>
        <mxCell id="2B0hfktGACySdo1leKU8-32" style="edgeStyle=orthogonalEdgeStyle;rounded=0;orthogonalLoop=1;jettySize=auto;html=1;exitX=1;exitY=0.5;exitDx=0;exitDy=0;entryX=0.5;entryY=0;entryDx=0;entryDy=0;" edge="1" parent="1" source="2B0hfktGACySdo1leKU8-25" target="2B0hfktGACySdo1leKU8-27">
          <mxGeometry relative="1" as="geometry" />
        </mxCell>
        <mxCell id="2B0hfktGACySdo1leKU8-25" value="NUMERO&amp;gt;=0" style="rhombus;whiteSpace=wrap;html=1;" vertex="1" parent="1">
          <mxGeometry x="270" y="1230" width="200" height="150" as="geometry" />
        </mxCell>
        <mxCell id="2B0hfktGACySdo1leKU8-33" style="edgeStyle=orthogonalEdgeStyle;rounded=0;orthogonalLoop=1;jettySize=auto;html=1;exitX=0.5;exitY=1;exitDx=0;exitDy=0;entryX=0;entryY=0.5;entryDx=0;entryDy=0;" edge="1" parent="1" source="2B0hfktGACySdo1leKU8-26" target="2B0hfktGACySdo1leKU8-28">
          <mxGeometry relative="1" as="geometry" />
        </mxCell>
        <mxCell id="2B0hfktGACySdo1leKU8-26" value="ES NEGATIVO" style="shape=parallelogram;perimeter=parallelogramPerimeter;whiteSpace=wrap;html=1;fixedSize=1;" vertex="1" parent="1">
          <mxGeometry x="115" y="1410" width="170" height="80" as="geometry" />
        </mxCell>
        <mxCell id="2B0hfktGACySdo1leKU8-34" style="edgeStyle=orthogonalEdgeStyle;rounded=0;orthogonalLoop=1;jettySize=auto;html=1;exitX=0.5;exitY=1;exitDx=0;exitDy=0;entryX=1;entryY=0.5;entryDx=0;entryDy=0;" edge="1" parent="1" source="2B0hfktGACySdo1leKU8-27" target="2B0hfktGACySdo1leKU8-28">
          <mxGeometry relative="1" as="geometry" />
        </mxCell>
        <mxCell id="2B0hfktGACySdo1leKU8-27" value="ES POSITIVO" style="shape=parallelogram;perimeter=parallelogramPerimeter;whiteSpace=wrap;html=1;fixedSize=1;" vertex="1" parent="1">
          <mxGeometry x="445" y="1410" width="170" height="80" as="geometry" />
        </mxCell>
        <mxCell id="2B0hfktGACySdo1leKU8-28" value="FIN" style="ellipse;whiteSpace=wrap;html=1;" vertex="1" parent="1">
          <mxGeometry x="310" y="1580" width="120" height="80" as="geometry" />
        </mxCell>
        <mxCell id="2B0hfktGACySdo1leKU8-31" style="edgeStyle=orthogonalEdgeStyle;rounded=0;orthogonalLoop=1;jettySize=auto;html=1;exitX=0;exitY=0.5;exitDx=0;exitDy=0;entryX=0.459;entryY=-0.037;entryDx=0;entryDy=0;entryPerimeter=0;" edge="1" parent="1" source="2B0hfktGACySdo1leKU8-25" target="2B0hfktGACySdo1leKU8-26">
          <mxGeometry relative="1" as="geometry" />
        </mxCell>
        <mxCell id="2B0hfktGACySdo1leKU8-43" style="edgeStyle=orthogonalEdgeStyle;rounded=0;orthogonalLoop=1;jettySize=auto;html=1;exitX=0.5;exitY=1;exitDx=0;exitDy=0;entryX=0.5;entryY=0;entryDx=0;entryDy=0;" edge="1" parent="1" source="2B0hfktGACySdo1leKU8-35" target="2B0hfktGACySdo1leKU8-38">
          <mxGeometry relative="1" as="geometry" />
        </mxCell>
        <mxCell id="2B0hfktGACySdo1leKU8-35" value="INICIO" style="ellipse;whiteSpace=wrap;html=1;" vertex="1" parent="1">
          <mxGeometry x="300" y="1780" width="120" height="80" as="geometry" />
        </mxCell>
        <mxCell id="2B0hfktGACySdo1leKU8-36" value="&lt;h3 style=&quot;box-sizing: border-box; color: rgb(28, 30, 33); font-family: system-ui, -apple-system, &amp;quot;Segoe UI&amp;quot;, Roboto, Ubuntu, Cantarell, &amp;quot;Noto Sans&amp;quot;, sans-serif, BlinkMacSystemFont, &amp;quot;Segoe UI&amp;quot;, Helvetica, Arial, sans-serif, &amp;quot;Apple Color Emoji&amp;quot;, &amp;quot;Segoe UI Emoji&amp;quot;, &amp;quot;Segoe UI Symbol&amp;quot;; line-height: 1.25; margin: 30px 0px 20px; font-size: 24px; scroll-margin-top: 68px; --ifm-h3-font-size: 1.5rem; text-wrap-mode: wrap;&quot; id=&quot;3-par-o-impar&quot; class=&quot;anchor anchorWithStickyNavbar_LWe7&quot;&gt;3. Par o Impar&lt;a style=&quot;box-sizing: border-box; transition: opacity 0.2s; color: rgb(0, 122, 255); text-decoration-line: none; text-decoration-style: solid; text-decoration-color: rgb(0, 122, 255); opacity: 1; padding-left: 0.5rem; user-select: none;&quot; title=&quot;Direct link to 3. Par o Impar&quot; aria-label=&quot;Direct link to 3. Par o Impar&quot; class=&quot;hash-link&quot; href=&quot;https://learn.andrescortes.dev/docs/python/fundamentos/semana-1/dia-1/ejercicios#3-par-o-impar&quot;&gt;​&lt;/a&gt;&lt;/h3&gt;&lt;p style=&quot;box-sizing: border-box; margin: 0px 0px 20px; color: rgb(28, 30, 33); font-family: system-ui, -apple-system, &amp;quot;Segoe UI&amp;quot;, Roboto, Ubuntu, Cantarell, &amp;quot;Noto Sans&amp;quot;, sans-serif, BlinkMacSystemFont, &amp;quot;Segoe UI&amp;quot;, Helvetica, Arial, sans-serif, &amp;quot;Apple Color Emoji&amp;quot;, &amp;quot;Segoe UI Emoji&amp;quot;, &amp;quot;Segoe UI Symbol&amp;quot;; font-size: 16px; text-wrap-mode: wrap;&quot;&gt;&lt;br&gt;&lt;/p&gt;" style="text;html=1;align=left;verticalAlign=middle;resizable=0;points=[];autosize=1;strokeColor=none;fillColor=none;" vertex="1" parent="1">
          <mxGeometry x="10" y="1800" width="190" height="130" as="geometry" />
        </mxCell>
        <mxCell id="2B0hfktGACySdo1leKU8-44" style="edgeStyle=orthogonalEdgeStyle;rounded=0;orthogonalLoop=1;jettySize=auto;html=1;exitX=0.5;exitY=1;exitDx=0;exitDy=0;entryX=0.5;entryY=0;entryDx=0;entryDy=0;" edge="1" parent="1" source="2B0hfktGACySdo1leKU8-38" target="2B0hfktGACySdo1leKU8-39">
          <mxGeometry relative="1" as="geometry" />
        </mxCell>
        <mxCell id="2B0hfktGACySdo1leKU8-38" value="SOLICITAR NUMERO" style="shape=parallelogram;perimeter=parallelogramPerimeter;whiteSpace=wrap;html=1;fixedSize=1;" vertex="1" parent="1">
          <mxGeometry x="300" y="1930" width="120" height="60" as="geometry" />
        </mxCell>
        <mxCell id="2B0hfktGACySdo1leKU8-45" style="edgeStyle=orthogonalEdgeStyle;rounded=0;orthogonalLoop=1;jettySize=auto;html=1;exitX=0;exitY=0.5;exitDx=0;exitDy=0;entryX=0.5;entryY=0;entryDx=0;entryDy=0;" edge="1" parent="1" source="2B0hfktGACySdo1leKU8-39" target="2B0hfktGACySdo1leKU8-40">
          <mxGeometry relative="1" as="geometry" />
        </mxCell>
        <mxCell id="2B0hfktGACySdo1leKU8-46" style="edgeStyle=orthogonalEdgeStyle;rounded=0;orthogonalLoop=1;jettySize=auto;html=1;exitX=1;exitY=0.5;exitDx=0;exitDy=0;entryX=0.5;entryY=0;entryDx=0;entryDy=0;" edge="1" parent="1" source="2B0hfktGACySdo1leKU8-39" target="2B0hfktGACySdo1leKU8-41">
          <mxGeometry relative="1" as="geometry" />
        </mxCell>
        <mxCell id="2B0hfktGACySdo1leKU8-39" value="NUMERO%2===?" style="rhombus;whiteSpace=wrap;html=1;" vertex="1" parent="1">
          <mxGeometry x="270" y="2030" width="180" height="100" as="geometry" />
        </mxCell>
        <mxCell id="2B0hfktGACySdo1leKU8-47" style="edgeStyle=orthogonalEdgeStyle;rounded=0;orthogonalLoop=1;jettySize=auto;html=1;exitX=0.5;exitY=1;exitDx=0;exitDy=0;entryX=0;entryY=0.5;entryDx=0;entryDy=0;" edge="1" parent="1" source="2B0hfktGACySdo1leKU8-40" target="2B0hfktGACySdo1leKU8-42">
          <mxGeometry relative="1" as="geometry" />
        </mxCell>
        <mxCell id="2B0hfktGACySdo1leKU8-40" value="ES IMPAR" style="shape=parallelogram;perimeter=parallelogramPerimeter;whiteSpace=wrap;html=1;fixedSize=1;" vertex="1" parent="1">
          <mxGeometry x="120" y="2190" width="120" height="60" as="geometry" />
        </mxCell>
        <mxCell id="2B0hfktGACySdo1leKU8-48" style="edgeStyle=orthogonalEdgeStyle;rounded=0;orthogonalLoop=1;jettySize=auto;html=1;exitX=0.5;exitY=1;exitDx=0;exitDy=0;entryX=1;entryY=0.5;entryDx=0;entryDy=0;" edge="1" parent="1" source="2B0hfktGACySdo1leKU8-41" target="2B0hfktGACySdo1leKU8-42">
          <mxGeometry relative="1" as="geometry" />
        </mxCell>
        <mxCell id="2B0hfktGACySdo1leKU8-41" value="ES PAR" style="shape=parallelogram;perimeter=parallelogramPerimeter;whiteSpace=wrap;html=1;fixedSize=1;" vertex="1" parent="1">
          <mxGeometry x="450" y="2190" width="120" height="60" as="geometry" />
        </mxCell>
        <mxCell id="2B0hfktGACySdo1leKU8-42" value="FIN" style="ellipse;whiteSpace=wrap;html=1;" vertex="1" parent="1">
          <mxGeometry x="294" y="2300" width="120" height="80" as="geometry" />
        </mxCell>
        <mxCell id="2B0hfktGACySdo1leKU8-49" value="NO" style="text;html=1;align=center;verticalAlign=middle;resizable=0;points=[];autosize=1;strokeColor=none;fillColor=none;" vertex="1" parent="1">
          <mxGeometry x="200" y="2088" width="40" height="30" as="geometry" />
        </mxCell>
        <mxCell id="2B0hfktGACySdo1leKU8-50" value="SI" style="text;html=1;align=center;verticalAlign=middle;resizable=0;points=[];autosize=1;strokeColor=none;fillColor=none;" vertex="1" parent="1">
          <mxGeometry x="455" y="2078" width="30" height="30" as="geometry" />
        </mxCell>
        <mxCell id="2B0hfktGACySdo1leKU8-51" value="NO" style="text;html=1;align=center;verticalAlign=middle;resizable=0;points=[];autosize=1;strokeColor=none;fillColor=none;" vertex="1" parent="1">
          <mxGeometry x="220" y="1318" width="40" height="30" as="geometry" />
        </mxCell>
        <mxCell id="2B0hfktGACySdo1leKU8-52" value="SI" style="text;html=1;align=center;verticalAlign=middle;resizable=0;points=[];autosize=1;strokeColor=none;fillColor=none;" vertex="1" parent="1">
          <mxGeometry x="485" y="1308" width="30" height="30" as="geometry" />
        </mxCell>
        <mxCell id="2B0hfktGACySdo1leKU8-53" style="edgeStyle=orthogonalEdgeStyle;rounded=0;orthogonalLoop=1;jettySize=auto;html=1;exitX=0.5;exitY=1;exitDx=0;exitDy=0;entryX=0.5;entryY=0;entryDx=0;entryDy=0;" edge="1" source="2B0hfktGACySdo1leKU8-54" target="2B0hfktGACySdo1leKU8-56" parent="1">
          <mxGeometry relative="1" as="geometry" />
        </mxCell>
        <mxCell id="2B0hfktGACySdo1leKU8-54" value="INICIO" style="ellipse;whiteSpace=wrap;html=1;" vertex="1" parent="1">
          <mxGeometry x="300" y="2530" width="120" height="80" as="geometry" />
        </mxCell>
        <mxCell id="2B0hfktGACySdo1leKU8-55" style="edgeStyle=orthogonalEdgeStyle;rounded=0;orthogonalLoop=1;jettySize=auto;html=1;exitX=0.5;exitY=1;exitDx=0;exitDy=0;entryX=0.5;entryY=0;entryDx=0;entryDy=0;" edge="1" source="2B0hfktGACySdo1leKU8-56" target="2B0hfktGACySdo1leKU8-58" parent="1">
          <mxGeometry relative="1" as="geometry" />
        </mxCell>
        <mxCell id="2B0hfktGACySdo1leKU8-56" value="SOLICITAR CONTRASEÑA" style="shape=parallelogram;perimeter=parallelogramPerimeter;whiteSpace=wrap;html=1;fixedSize=1;" vertex="1" parent="1">
          <mxGeometry x="300" y="2680" width="120" height="60" as="geometry" />
        </mxCell>
        <mxCell id="2B0hfktGACySdo1leKU8-57" style="edgeStyle=orthogonalEdgeStyle;rounded=0;orthogonalLoop=1;jettySize=auto;html=1;exitX=1;exitY=0.5;exitDx=0;exitDy=0;entryX=0.5;entryY=0;entryDx=0;entryDy=0;" edge="1" source="2B0hfktGACySdo1leKU8-58" target="2B0hfktGACySdo1leKU8-60" parent="1">
          <mxGeometry relative="1" as="geometry" />
        </mxCell>
        <mxCell id="2B0hfktGACySdo1leKU8-64" style="edgeStyle=orthogonalEdgeStyle;rounded=0;orthogonalLoop=1;jettySize=auto;html=1;exitX=0;exitY=0.5;exitDx=0;exitDy=0;" edge="1" parent="1" source="2B0hfktGACySdo1leKU8-58" target="2B0hfktGACySdo1leKU8-63">
          <mxGeometry relative="1" as="geometry" />
        </mxCell>
        <mxCell id="2B0hfktGACySdo1leKU8-58" value="CONTRASEÑA == &quot;PYTHON123&quot;?" style="rhombus;whiteSpace=wrap;html=1;" vertex="1" parent="1">
          <mxGeometry x="270" y="2780" width="180" height="100" as="geometry" />
        </mxCell>
        <mxCell id="2B0hfktGACySdo1leKU8-59" style="edgeStyle=orthogonalEdgeStyle;rounded=0;orthogonalLoop=1;jettySize=auto;html=1;exitX=0.5;exitY=1;exitDx=0;exitDy=0;entryX=1;entryY=0.5;entryDx=0;entryDy=0;" edge="1" source="2B0hfktGACySdo1leKU8-60" target="2B0hfktGACySdo1leKU8-61" parent="1">
          <mxGeometry relative="1" as="geometry" />
        </mxCell>
        <mxCell id="2B0hfktGACySdo1leKU8-60" value="ACCESO CONCEDIDO" style="shape=parallelogram;perimeter=parallelogramPerimeter;whiteSpace=wrap;html=1;fixedSize=1;" vertex="1" parent="1">
          <mxGeometry x="450" y="2940" width="120" height="60" as="geometry" />
        </mxCell>
        <mxCell id="2B0hfktGACySdo1leKU8-61" value="FIN" style="ellipse;whiteSpace=wrap;html=1;" vertex="1" parent="1">
          <mxGeometry x="294" y="3050" width="120" height="80" as="geometry" />
        </mxCell>
        <mxCell id="2B0hfktGACySdo1leKU8-62" value="SI" style="text;html=1;align=center;verticalAlign=middle;resizable=0;points=[];autosize=1;strokeColor=none;fillColor=none;" vertex="1" parent="1">
          <mxGeometry x="455" y="2828" width="30" height="30" as="geometry" />
        </mxCell>
        <mxCell id="2B0hfktGACySdo1leKU8-66" style="edgeStyle=orthogonalEdgeStyle;rounded=0;orthogonalLoop=1;jettySize=auto;html=1;exitX=0.5;exitY=1;exitDx=0;exitDy=0;entryX=0;entryY=0.5;entryDx=0;entryDy=0;" edge="1" parent="1" source="2B0hfktGACySdo1leKU8-63" target="2B0hfktGACySdo1leKU8-61">
          <mxGeometry relative="1" as="geometry" />
        </mxCell>
        <mxCell id="2B0hfktGACySdo1leKU8-63" value="CONTRASEÑA INCORRECTA" style="shape=parallelogram;perimeter=parallelogramPerimeter;whiteSpace=wrap;html=1;fixedSize=1;" vertex="1" parent="1">
          <mxGeometry x="130" y="2940" width="120" height="60" as="geometry" />
        </mxCell>
        <mxCell id="2B0hfktGACySdo1leKU8-65" value="NO" style="text;html=1;align=center;verticalAlign=middle;resizable=0;points=[];autosize=1;strokeColor=none;fillColor=none;" vertex="1" parent="1">
          <mxGeometry x="210" y="2828" width="40" height="30" as="geometry" />
        </mxCell>
        <mxCell id="2B0hfktGACySdo1leKU8-67" style="edgeStyle=orthogonalEdgeStyle;rounded=0;orthogonalLoop=1;jettySize=auto;html=1;exitX=0.5;exitY=1;exitDx=0;exitDy=0;entryX=0.5;entryY=0;entryDx=0;entryDy=0;" edge="1" source="2B0hfktGACySdo1leKU8-68" target="2B0hfktGACySdo1leKU8-70" parent="1">
          <mxGeometry relative="1" as="geometry" />
        </mxCell>
        <mxCell id="2B0hfktGACySdo1leKU8-68" value="INICIO" style="ellipse;whiteSpace=wrap;html=1;" vertex="1" parent="1">
          <mxGeometry x="290" y="3240" width="120" height="80" as="geometry" />
        </mxCell>
        <mxCell id="2B0hfktGACySdo1leKU8-69" style="edgeStyle=orthogonalEdgeStyle;rounded=0;orthogonalLoop=1;jettySize=auto;html=1;exitX=0.5;exitY=1;exitDx=0;exitDy=0;entryX=0.5;entryY=0;entryDx=0;entryDy=0;" edge="1" source="2B0hfktGACySdo1leKU8-112" parent="1">
          <mxGeometry relative="1" as="geometry">
            <mxPoint x="350" y="3640" as="targetPoint" />
          </mxGeometry>
        </mxCell>
        <mxCell id="2B0hfktGACySdo1leKU8-113" value="" style="edgeStyle=orthogonalEdgeStyle;rounded=0;orthogonalLoop=1;jettySize=auto;html=1;" edge="1" parent="1" source="2B0hfktGACySdo1leKU8-70" target="2B0hfktGACySdo1leKU8-112">
          <mxGeometry relative="1" as="geometry" />
        </mxCell>
        <mxCell id="2B0hfktGACySdo1leKU8-70" value="SOLICITAR TOTAL DE CUENTA" style="shape=parallelogram;perimeter=parallelogramPerimeter;whiteSpace=wrap;html=1;fixedSize=1;" vertex="1" parent="1">
          <mxGeometry x="290" y="3390" width="120" height="60" as="geometry" />
        </mxCell>
        <mxCell id="2B0hfktGACySdo1leKU8-96" style="edgeStyle=orthogonalEdgeStyle;rounded=0;orthogonalLoop=1;jettySize=auto;html=1;exitX=0.5;exitY=1;exitDx=0;exitDy=0;entryX=0.5;entryY=0;entryDx=0;entryDy=0;" edge="1" source="2B0hfktGACySdo1leKU8-97" target="2B0hfktGACySdo1leKU8-99" parent="1">
          <mxGeometry relative="1" as="geometry" />
        </mxCell>
        <mxCell id="2B0hfktGACySdo1leKU8-97" value="INICIO" style="ellipse;whiteSpace=wrap;html=1;" vertex="1" parent="1">
          <mxGeometry x="298" y="4270" width="120" height="80" as="geometry" />
        </mxCell>
        <mxCell id="2B0hfktGACySdo1leKU8-98" style="edgeStyle=orthogonalEdgeStyle;rounded=0;orthogonalLoop=1;jettySize=auto;html=1;exitX=0.5;exitY=1;exitDx=0;exitDy=0;entryX=0.5;entryY=0;entryDx=0;entryDy=0;" edge="1" source="2B0hfktGACySdo1leKU8-99" target="2B0hfktGACySdo1leKU8-102" parent="1">
          <mxGeometry relative="1" as="geometry" />
        </mxCell>
        <mxCell id="2B0hfktGACySdo1leKU8-99" value="SOLICITAR NUMERO AL USUARIO" style="shape=parallelogram;perimeter=parallelogramPerimeter;whiteSpace=wrap;html=1;fixedSize=1;" vertex="1" parent="1">
          <mxGeometry x="298" y="4500" width="120" height="60" as="geometry" />
        </mxCell>
        <mxCell id="2B0hfktGACySdo1leKU8-100" style="edgeStyle=orthogonalEdgeStyle;rounded=0;orthogonalLoop=1;jettySize=auto;html=1;exitX=1;exitY=0.5;exitDx=0;exitDy=0;entryX=0.5;entryY=0;entryDx=0;entryDy=0;" edge="1" source="2B0hfktGACySdo1leKU8-102" target="2B0hfktGACySdo1leKU8-104" parent="1">
          <mxGeometry relative="1" as="geometry" />
        </mxCell>
        <mxCell id="2B0hfktGACySdo1leKU8-102" value="NUMERO==SECRETO?" style="rhombus;whiteSpace=wrap;html=1;" vertex="1" parent="1">
          <mxGeometry x="265" y="4640" width="180" height="100" as="geometry" />
        </mxCell>
        <mxCell id="2B0hfktGACySdo1leKU8-103" style="edgeStyle=orthogonalEdgeStyle;rounded=0;orthogonalLoop=1;jettySize=auto;html=1;exitX=0.5;exitY=1;exitDx=0;exitDy=0;entryX=1;entryY=0.5;entryDx=0;entryDy=0;" edge="1" source="2B0hfktGACySdo1leKU8-104" target="2B0hfktGACySdo1leKU8-105" parent="1">
          <mxGeometry relative="1" as="geometry" />
        </mxCell>
        <mxCell id="2B0hfktGACySdo1leKU8-104" value="ADIVINASTES" style="shape=parallelogram;perimeter=parallelogramPerimeter;whiteSpace=wrap;html=1;fixedSize=1;" vertex="1" parent="1">
          <mxGeometry x="515" y="4800" width="120" height="60" as="geometry" />
        </mxCell>
        <mxCell id="2B0hfktGACySdo1leKU8-105" value="FIN" style="ellipse;whiteSpace=wrap;html=1;" vertex="1" parent="1">
          <mxGeometry x="215" y="5070" width="120" height="80" as="geometry" />
        </mxCell>
        <mxCell id="2B0hfktGACySdo1leKU8-106" value="SI" style="text;html=1;align=center;verticalAlign=middle;resizable=0;points=[];autosize=1;strokeColor=none;fillColor=none;" vertex="1" parent="1">
          <mxGeometry x="515" y="4690" width="30" height="30" as="geometry" />
        </mxCell>
        <mxCell id="2B0hfktGACySdo1leKU8-109" value="NO" style="text;html=1;align=center;verticalAlign=middle;resizable=0;points=[];autosize=1;strokeColor=none;fillColor=none;" vertex="1" parent="1">
          <mxGeometry x="175" y="4730" width="40" height="30" as="geometry" />
        </mxCell>
        <mxCell id="2B0hfktGACySdo1leKU8-110" value="4)Contraseña Correcta" style="text;html=1;align=center;verticalAlign=middle;resizable=0;points=[];autosize=1;strokeColor=none;fillColor=none;" vertex="1" parent="1">
          <mxGeometry x="30" y="2570" width="150" height="30" as="geometry" />
        </mxCell>
        <mxCell id="2B0hfktGACySdo1leKU8-111" value="5. Calculadora de Propinas" style="text;html=1;align=center;verticalAlign=middle;resizable=0;points=[];autosize=1;strokeColor=none;fillColor=none;" vertex="1" parent="1">
          <mxGeometry x="5" y="3250" width="170" height="30" as="geometry" />
        </mxCell>
        <mxCell id="2B0hfktGACySdo1leKU8-114" value="" style="edgeStyle=orthogonalEdgeStyle;rounded=0;orthogonalLoop=1;jettySize=auto;html=1;exitX=0.5;exitY=1;exitDx=0;exitDy=0;entryX=0.5;entryY=0;entryDx=0;entryDy=0;" edge="1" parent="1" source="2B0hfktGACySdo1leKU8-70" target="2B0hfktGACySdo1leKU8-112">
          <mxGeometry relative="1" as="geometry">
            <mxPoint x="350" y="3450" as="sourcePoint" />
            <mxPoint x="345" y="3590" as="targetPoint" />
          </mxGeometry>
        </mxCell>
        <mxCell id="2B0hfktGACySdo1leKU8-112" value="SOLICITAR PORCENTAJE DE PROPINA(10,15 O 20)" style="shape=parallelogram;perimeter=parallelogramPerimeter;whiteSpace=wrap;html=1;fixedSize=1;" vertex="1" parent="1">
          <mxGeometry x="210" y="3500" width="280" height="80" as="geometry" />
        </mxCell>
        <mxCell id="2B0hfktGACySdo1leKU8-118" style="edgeStyle=orthogonalEdgeStyle;rounded=0;orthogonalLoop=1;jettySize=auto;html=1;exitX=0.5;exitY=1;exitDx=0;exitDy=0;entryX=0.5;entryY=0;entryDx=0;entryDy=0;" edge="1" parent="1" source="2B0hfktGACySdo1leKU8-115" target="2B0hfktGACySdo1leKU8-116">
          <mxGeometry relative="1" as="geometry" />
        </mxCell>
        <mxCell id="2B0hfktGACySdo1leKU8-115" value="CALCULAR PROPINA=(TOTAL*PROCENTAJE)/100" style="rounded=1;whiteSpace=wrap;html=1;" vertex="1" parent="1">
          <mxGeometry x="270" y="3640" width="170" height="90" as="geometry" />
        </mxCell>
        <mxCell id="2B0hfktGACySdo1leKU8-119" style="edgeStyle=orthogonalEdgeStyle;rounded=0;orthogonalLoop=1;jettySize=auto;html=1;exitX=0.5;exitY=1;exitDx=0;exitDy=0;entryX=0.5;entryY=0;entryDx=0;entryDy=0;" edge="1" parent="1" source="2B0hfktGACySdo1leKU8-116" target="2B0hfktGACySdo1leKU8-117">
          <mxGeometry relative="1" as="geometry" />
        </mxCell>
        <mxCell id="2B0hfktGACySdo1leKU8-116" value="MOSTRAR PROPINA" style="rounded=1;whiteSpace=wrap;html=1;" vertex="1" parent="1">
          <mxGeometry x="270" y="3780" width="170" height="90" as="geometry" />
        </mxCell>
        <mxCell id="2B0hfktGACySdo1leKU8-117" value="FIN" style="ellipse;whiteSpace=wrap;html=1;" vertex="1" parent="1">
          <mxGeometry x="294" y="3900" width="120" height="80" as="geometry" />
        </mxCell>
        <mxCell id="2B0hfktGACySdo1leKU8-120" value="6. Adivina el Número" style="text;html=1;align=center;verticalAlign=middle;resizable=0;points=[];autosize=1;strokeColor=none;fillColor=none;" vertex="1" parent="1">
          <mxGeometry x="20" y="4278" width="130" height="30" as="geometry" />
        </mxCell>
        <mxCell id="2B0hfktGACySdo1leKU8-121" value="FIJAR NUMERO SECRETO" style="rounded=1;whiteSpace=wrap;html=1;" vertex="1" parent="1">
          <mxGeometry x="304" y="4390" width="120" height="60" as="geometry" />
        </mxCell>
        <mxCell id="2B0hfktGACySdo1leKU8-123" style="edgeStyle=orthogonalEdgeStyle;rounded=0;orthogonalLoop=1;jettySize=auto;html=1;exitX=1;exitY=0.5;exitDx=0;exitDy=0;entryX=0;entryY=0.5;entryDx=0;entryDy=0;" edge="1" parent="1" source="2B0hfktGACySdo1leKU8-122" target="2B0hfktGACySdo1leKU8-102">
          <mxGeometry relative="1" as="geometry" />
        </mxCell>
        <mxCell id="2B0hfktGACySdo1leKU8-128" style="edgeStyle=orthogonalEdgeStyle;rounded=0;orthogonalLoop=1;jettySize=auto;html=1;exitX=0;exitY=0.5;exitDx=0;exitDy=0;" edge="1" parent="1" source="2B0hfktGACySdo1leKU8-122" target="2B0hfktGACySdo1leKU8-124">
          <mxGeometry relative="1" as="geometry" />
        </mxCell>
        <mxCell id="2B0hfktGACySdo1leKU8-129" style="edgeStyle=orthogonalEdgeStyle;rounded=0;orthogonalLoop=1;jettySize=auto;html=1;exitX=0.5;exitY=1;exitDx=0;exitDy=0;entryX=0.75;entryY=0;entryDx=0;entryDy=0;" edge="1" parent="1" source="2B0hfktGACySdo1leKU8-122" target="2B0hfktGACySdo1leKU8-125">
          <mxGeometry relative="1" as="geometry" />
        </mxCell>
        <mxCell id="2B0hfktGACySdo1leKU8-122" value="NUMERO &amp;gt; SECRETO?" style="rhombus;whiteSpace=wrap;html=1;" vertex="1" parent="1">
          <mxGeometry x="15" y="4720" width="180" height="110" as="geometry" />
        </mxCell>
        <mxCell id="2B0hfktGACySdo1leKU8-130" style="edgeStyle=orthogonalEdgeStyle;rounded=0;orthogonalLoop=1;jettySize=auto;html=1;exitX=0.5;exitY=1;exitDx=0;exitDy=0;" edge="1" parent="1" source="2B0hfktGACySdo1leKU8-124">
          <mxGeometry relative="1" as="geometry">
            <mxPoint x="210" y="5110" as="targetPoint" />
          </mxGeometry>
        </mxCell>
        <mxCell id="2B0hfktGACySdo1leKU8-124" value="MUY ALTO" style="shape=parallelogram;perimeter=parallelogramPerimeter;whiteSpace=wrap;html=1;fixedSize=1;" vertex="1" parent="1">
          <mxGeometry x="-80" y="4950" width="120" height="60" as="geometry" />
        </mxCell>
        <mxCell id="2B0hfktGACySdo1leKU8-125" value="MUY BAJO" style="shape=parallelogram;perimeter=parallelogramPerimeter;whiteSpace=wrap;html=1;fixedSize=1;" vertex="1" parent="1">
          <mxGeometry x="174" y="4880" width="120" height="60" as="geometry" />
        </mxCell>
        <mxCell id="2B0hfktGACySdo1leKU8-126" value="NO" style="text;html=1;align=center;verticalAlign=middle;resizable=0;points=[];autosize=1;strokeColor=none;fillColor=none;" vertex="1" parent="1">
          <mxGeometry x="190" y="4850" width="40" height="30" as="geometry" />
        </mxCell>
        <mxCell id="2B0hfktGACySdo1leKU8-127" value="SI" style="text;html=1;align=center;verticalAlign=middle;resizable=0;points=[];autosize=1;strokeColor=none;fillColor=none;" vertex="1" parent="1">
          <mxGeometry y="4860" width="30" height="30" as="geometry" />
        </mxCell>
        <mxCell id="2B0hfktGACySdo1leKU8-131" style="edgeStyle=orthogonalEdgeStyle;rounded=0;orthogonalLoop=1;jettySize=auto;html=1;exitX=0.5;exitY=1;exitDx=0;exitDy=0;entryX=0.292;entryY=0.025;entryDx=0;entryDy=0;entryPerimeter=0;" edge="1" parent="1" source="2B0hfktGACySdo1leKU8-125" target="2B0hfktGACySdo1leKU8-105">
          <mxGeometry relative="1" as="geometry" />
        </mxCell>
      </root>
    </mxGraphModel>
  </diagram>
</mxfile>
